<?xml version="1.0" encoding="UTF-8" standalone="no"?>
<!DOCTYPE svg PUBLIC "-//W3C//DTD SVG 1.1//EN"
 "http://www.w3.org/Graphics/SVG/1.1/DTD/svg11.dtd">
<!-- Generated by graphviz version 2.40.1 (20161225.0304)
 -->
<!-- Title: dependencies Pages: 1 -->
<svg width="676pt" height="284pt"
 viewBox="0.00 0.00 676.00 284.00" xmlns="http://www.w3.org/2000/svg" xmlns:xlink="http://www.w3.org/1999/xlink">
<g id="graph0" class="graph" transform="scale(1 1) rotate(0) translate(4 280)">
<title>dependencies</title>
<polygon fill="#ffffff" stroke="transparent" points="-4,4 -4,-280 672,-280 672,4 -4,4"/>
<text text-anchor="start" x="313.0091" y="-42.4" font-family="sans-serif" font-weight="bold" font-size="14.00" fill="#000000">Legend</text>
<polygon fill="#ffffb3" stroke="transparent" points="100,-10 100,-30 120,-30 120,-10 100,-10"/>
<text text-anchor="start" x="123.629" y="-15.4" font-family="sans-serif" font-size="14.00" fill="#000000"> &#160;Declarations</text>
<polygon fill="#8dd3c7" stroke="transparent" points="213,-10 213,-30 233,-30 233,-10 213,-10"/>
<text text-anchor="start" x="236.7251" y="-15.4" font-family="sans-serif" font-size="14.00" fill="#000000"> &#160;Module</text>
<polygon fill="#80b1d3" stroke="transparent" points="299,-10 299,-30 319,-30 319,-10 299,-10"/>
<text text-anchor="start" x="322.7812" y="-15.4" font-family="sans-serif" font-size="14.00" fill="#000000"> &#160;Bootstrap</text>
<polygon fill="#fdb462" stroke="transparent" points="396,-10 396,-30 416,-30 416,-10 396,-10"/>
<text text-anchor="start" x="419.6732" y="-15.4" font-family="sans-serif" font-size="14.00" fill="#000000"> &#160;Providers</text>
<polygon fill="#fb8072" stroke="transparent" points="492,-10 492,-30 512,-30 512,-10 492,-10"/>
<text text-anchor="start" x="515.7258" y="-15.4" font-family="sans-serif" font-size="14.00" fill="#000000"> &#160;Exports</text>
<g id="clust1" class="cluster">
<title>cluster_CommonModule</title>
<polygon fill="none" stroke="#000000" stroke-dasharray="1,5" points="8,-70 8,-268 660,-268 660,-70 8,-70"/>
</g>
<g id="clust4" class="cluster">
<title>cluster_CommonModule_exports</title>
<polygon fill="none" stroke="#000000" points="16,-208 16,-260 652,-260 652,-208 16,-208"/>
</g>
<g id="clust6" class="cluster">
<title>cluster_CommonModule_providers</title>
<polygon fill="none" stroke="#000000" points="258,-78 258,-130 426,-130 426,-78 258,-78"/>
</g>
<!-- AwsS3Service  -->
<g id="node1" class="node">
<title>AwsS3Service </title>
<polygon fill="#fb8072" stroke="#000000" points="643.918,-252 542.082,-252 542.082,-216 643.918,-216 643.918,-252"/>
<text text-anchor="middle" x="593" y="-229.8" font-family="Times,serif" font-size="14.00" fill="#000000">AwsS3Service </text>
</g>
<!-- CommonService  -->
<g id="node2" class="node">
<title>CommonService </title>
<polygon fill="#fb8072" stroke="#000000" points="523.5961,-252 410.4039,-252 410.4039,-216 523.5961,-216 523.5961,-252"/>
<text text-anchor="middle" x="467" y="-229.8" font-family="Times,serif" font-size="14.00" fill="#000000">CommonService </text>
</g>
<!-- ConfigService  -->
<g id="node3" class="node">
<title>ConfigService </title>
<polygon fill="#fb8072" stroke="#000000" points="392.3661,-252 291.6339,-252 291.6339,-216 392.3661,-216 392.3661,-252"/>
<text text-anchor="middle" x="342" y="-229.8" font-family="Times,serif" font-size="14.00" fill="#000000">ConfigService </text>
</g>
<!-- GeneratorService  -->
<g id="node4" class="node">
<title>GeneratorService </title>
<polygon fill="#fb8072" stroke="#000000" points="273.9406,-252 156.0594,-252 156.0594,-216 273.9406,-216 273.9406,-252"/>
<text text-anchor="middle" x="215" y="-229.8" font-family="Times,serif" font-size="14.00" fill="#000000">GeneratorService </text>
</g>
<!-- ValidatorService  -->
<g id="node5" class="node">
<title>ValidatorService </title>
<polygon fill="#fb8072" stroke="#000000" points="138.3463,-252 23.6537,-252 23.6537,-216 138.3463,-216 138.3463,-252"/>
<text text-anchor="middle" x="81" y="-229.8" font-family="Times,serif" font-size="14.00" fill="#000000">ValidatorService </text>
</g>
<!-- CommonModule -->
<g id="node6" class="node">
<title>CommonModule</title>
<polygon fill="#8dd3c7" stroke="#000000" points="397.6681,-187 394.6681,-191 373.6681,-191 370.6681,-187 286.3319,-187 286.3319,-151 397.6681,-151 397.6681,-187"/>
<text text-anchor="middle" x="342" y="-164.8" font-family="Times,serif" font-size="14.00" fill="#000000">CommonModule</text>
</g>
<!-- CommonModule&#45;&gt;AwsS3Service  -->
<g id="edge1" class="edge">
<title>CommonModule&#45;&gt;AwsS3Service </title>
<path fill="none" stroke="#000000" stroke-dasharray="5,2" d="M397.705,-163C471.6517,-163 593,-163 593,-163 593,-163 593,-205.7157 593,-205.7157"/>
<polygon fill="#000000" stroke="#000000" points="589.5001,-205.7157 593,-215.7157 596.5001,-205.7158 589.5001,-205.7157"/>
</g>
<!-- CommonModule&#45;&gt;CommonService  -->
<g id="edge2" class="edge">
<title>CommonModule&#45;&gt;CommonService </title>
<path fill="none" stroke="#000000" stroke-dasharray="5,2" d="M397.7178,-175C407.2086,-175 414.072,-175 414.072,-175 414.072,-175 414.072,-205.9775 414.072,-205.9775"/>
<polygon fill="#000000" stroke="#000000" points="410.5721,-205.9774 414.072,-215.9775 417.5721,-205.9775 410.5721,-205.9774"/>
</g>
<!-- CommonModule&#45;&gt;ConfigService  -->
<g id="edge3" class="edge">
<title>CommonModule&#45;&gt;ConfigService </title>
<path fill="none" stroke="#000000" stroke-dasharray="5,2" d="M342,-187.1061C342,-187.1061 342,-205.991 342,-205.991"/>
<polygon fill="#000000" stroke="#000000" points="338.5001,-205.9909 342,-215.991 345.5001,-205.991 338.5001,-205.9909"/>
</g>
<!-- CommonModule&#45;&gt;GeneratorService  -->
<g id="edge4" class="edge">
<title>CommonModule&#45;&gt;GeneratorService </title>
<path fill="none" stroke="#000000" stroke-dasharray="5,2" d="M286.2521,-175C276.7562,-175 269.8891,-175 269.8891,-175 269.8891,-175 269.8891,-205.9775 269.8891,-205.9775"/>
<polygon fill="#000000" stroke="#000000" points="266.3892,-205.9774 269.8891,-215.9775 273.3892,-205.9775 266.3892,-205.9774"/>
</g>
<!-- CommonModule&#45;&gt;ValidatorService  -->
<g id="edge5" class="edge">
<title>CommonModule&#45;&gt;ValidatorService </title>
<path fill="none" stroke="#000000" stroke-dasharray="5,2" d="M286.3291,-163C209.6762,-163 81,-163 81,-163 81,-163 81,-205.7157 81,-205.7157"/>
<polygon fill="#000000" stroke="#000000" points="77.5001,-205.7157 81,-215.7157 84.5001,-205.7158 77.5001,-205.7157"/>
</g>
<!-- CommonService -->
<g id="node7" class="node">
<title>CommonService</title>
<ellipse fill="#fdb462" stroke="#000000" cx="342" cy="-104" rx="75.8836" ry="18"/>
<text text-anchor="middle" x="342" y="-99.8" font-family="Times,serif" font-size="14.00" fill="#000000">CommonService</text>
</g>
<!-- CommonService&#45;&gt;CommonModule -->
<g id="edge6" class="edge">
<title>CommonService&#45;&gt;CommonModule</title>
<path fill="none" stroke="#000000" d="M342,-122.1061C342,-122.1061 342,-140.991 342,-140.991"/>
<polygon fill="#000000" stroke="#000000" points="338.5001,-140.9909 342,-150.991 345.5001,-140.991 338.5001,-140.9909"/>
</g>
</g>
</svg>
