<?xml version="1.0" encoding="UTF-8" standalone="no"?>
<!DOCTYPE svg PUBLIC "-//W3C//DTD SVG 1.1//EN"
 "http://www.w3.org/Graphics/SVG/1.1/DTD/svg11.dtd">
<!-- Generated by graphviz version 2.40.1 (20161225.0304)
 -->
<!-- Title: dependencies Pages: 1 -->
<svg width="816pt" height="211pt"
 viewBox="0.00 0.00 816.00 211.00" xmlns="http://www.w3.org/2000/svg" xmlns:xlink="http://www.w3.org/1999/xlink">
<g id="graph0" class="graph" transform="scale(1 1) rotate(0) translate(4 207)">
<title>dependencies</title>
<polygon fill="#ffffff" stroke="transparent" points="-4,4 -4,-207 812,-207 812,4 -4,4"/>
<text text-anchor="start" x="383.0091" y="-42.4" font-family="sans-serif" font-weight="bold" font-size="14.00" fill="#000000">Legend</text>
<polygon fill="#ffffb3" stroke="transparent" points="170,-10 170,-30 190,-30 190,-10 170,-10"/>
<text text-anchor="start" x="193.629" y="-15.4" font-family="sans-serif" font-size="14.00" fill="#000000"> &#160;Declarations</text>
<polygon fill="#8dd3c7" stroke="transparent" points="283,-10 283,-30 303,-30 303,-10 283,-10"/>
<text text-anchor="start" x="306.7251" y="-15.4" font-family="sans-serif" font-size="14.00" fill="#000000"> &#160;Module</text>
<polygon fill="#80b1d3" stroke="transparent" points="369,-10 369,-30 389,-30 389,-10 369,-10"/>
<text text-anchor="start" x="392.7812" y="-15.4" font-family="sans-serif" font-size="14.00" fill="#000000"> &#160;Bootstrap</text>
<polygon fill="#fdb462" stroke="transparent" points="466,-10 466,-30 486,-30 486,-10 466,-10"/>
<text text-anchor="start" x="489.6732" y="-15.4" font-family="sans-serif" font-size="14.00" fill="#000000"> &#160;Providers</text>
<polygon fill="#fb8072" stroke="transparent" points="562,-10 562,-30 582,-30 582,-10 562,-10"/>
<text text-anchor="start" x="585.7258" y="-15.4" font-family="sans-serif" font-size="14.00" fill="#000000"> &#160;Exports</text>
<g id="clust1" class="cluster">
<title>cluster_AuthModule</title>
<polygon fill="none" stroke="#000000" stroke-dasharray="1,5" points="8,-70 8,-195 800,-195 800,-70 8,-70"/>
</g>
<g id="clust3" class="cluster">
<title>cluster_AuthModule_imports</title>
<polygon fill="none" stroke="#000000" points="656,-78 656,-130 792,-130 792,-78 656,-78"/>
</g>
<g id="clust6" class="cluster">
<title>cluster_AuthModule_providers</title>
<polygon fill="none" stroke="#000000" points="16,-78 16,-130 648,-130 648,-78 16,-78"/>
</g>
<!-- RepositoryModule -->
<g id="node1" class="node">
<title>RepositoryModule</title>
<polygon fill="#8dd3c7" stroke="#000000" points="784.4874,-122 781.4874,-126 760.4874,-126 757.4874,-122 663.5126,-122 663.5126,-86 784.4874,-86 784.4874,-122"/>
<text text-anchor="middle" x="724" y="-99.8" font-family="Times,serif" font-size="14.00" fill="#000000">RepositoryModule</text>
</g>
<!-- AuthModule -->
<g id="node2" class="node">
<title>AuthModule</title>
<polygon fill="#8dd3c7" stroke="#000000" points="471.5482,-187 468.5482,-191 447.5482,-191 444.5482,-187 384.4518,-187 384.4518,-151 471.5482,-151 471.5482,-187"/>
<text text-anchor="middle" x="428" y="-164.8" font-family="Times,serif" font-size="14.00" fill="#000000">AuthModule</text>
</g>
<!-- RepositoryModule&#45;&gt;AuthModule -->
<g id="edge1" class="edge">
<title>RepositoryModule&#45;&gt;AuthModule</title>
<path fill="none" stroke="#000000" d="M724,-122.2843C724,-143.3211 724,-175 724,-175 724,-175 481.6758,-175 481.6758,-175"/>
<polygon fill="#000000" stroke="#000000" points="481.6759,-171.5001 471.6758,-175 481.6758,-178.5001 481.6759,-171.5001"/>
</g>
<!-- AuthService -->
<g id="node3" class="node">
<title>AuthService</title>
<ellipse fill="#fdb462" stroke="#000000" cx="581" cy="-104" rx="59.1083" ry="18"/>
<text text-anchor="middle" x="581" y="-99.8" font-family="Times,serif" font-size="14.00" fill="#000000">AuthService</text>
</g>
<!-- AuthService&#45;&gt;AuthModule -->
<g id="edge2" class="edge">
<title>AuthService&#45;&gt;AuthModule</title>
<path fill="none" stroke="#000000" d="M581,-122.0225C581,-139.3734 581,-163 581,-163 581,-163 481.8437,-163 481.8437,-163"/>
<polygon fill="#000000" stroke="#000000" points="481.8437,-159.5001 471.8437,-163 481.8436,-166.5001 481.8437,-159.5001"/>
</g>
<!-- CookieSerializer -->
<g id="node4" class="node">
<title>CookieSerializer</title>
<ellipse fill="#fdb462" stroke="#000000" cx="428" cy="-104" rx="75.8566" ry="18"/>
<text text-anchor="middle" x="428" y="-99.8" font-family="Times,serif" font-size="14.00" fill="#000000">CookieSerializer</text>
</g>
<!-- CookieSerializer&#45;&gt;AuthModule -->
<g id="edge3" class="edge">
<title>CookieSerializer&#45;&gt;AuthModule</title>
<path fill="none" stroke="#000000" d="M428,-122.1061C428,-122.1061 428,-140.991 428,-140.991"/>
<polygon fill="#000000" stroke="#000000" points="424.5001,-140.9909 428,-150.991 431.5001,-140.991 424.5001,-140.9909"/>
</g>
<!-- FacebookStrategy -->
<g id="node5" class="node">
<title>FacebookStrategy</title>
<ellipse fill="#fdb462" stroke="#000000" cx="253" cy="-104" rx="80.52" ry="18"/>
<text text-anchor="middle" x="253" y="-99.8" font-family="Times,serif" font-size="14.00" fill="#000000">FacebookStrategy</text>
</g>
<!-- FacebookStrategy&#45;&gt;AuthModule -->
<g id="edge4" class="edge">
<title>FacebookStrategy&#45;&gt;AuthModule</title>
<path fill="none" stroke="#000000" d="M253,-122.0225C253,-139.3734 253,-163 253,-163 253,-163 374.2915,-163 374.2915,-163"/>
<polygon fill="#000000" stroke="#000000" points="374.2916,-166.5001 384.2915,-163 374.2915,-159.5001 374.2916,-166.5001"/>
</g>
<!-- LocalStrategy -->
<g id="node6" class="node">
<title>LocalStrategy</title>
<ellipse fill="#fdb462" stroke="#000000" cx="89" cy="-104" rx="65.4053" ry="18"/>
<text text-anchor="middle" x="89" y="-99.8" font-family="Times,serif" font-size="14.00" fill="#000000">LocalStrategy</text>
</g>
<!-- LocalStrategy&#45;&gt;AuthModule -->
<g id="edge5" class="edge">
<title>LocalStrategy&#45;&gt;AuthModule</title>
<path fill="none" stroke="#000000" d="M89,-122.2843C89,-143.3211 89,-175 89,-175 89,-175 374.3757,-175 374.3757,-175"/>
<polygon fill="#000000" stroke="#000000" points="374.3757,-178.5001 384.3757,-175 374.3756,-171.5001 374.3757,-178.5001"/>
</g>
</g>
</svg>
