<?xml version="1.0" encoding="UTF-8" standalone="no"?>
<!DOCTYPE svg PUBLIC "-//W3C//DTD SVG 1.1//EN"
 "http://www.w3.org/Graphics/SVG/1.1/DTD/svg11.dtd">
<!-- Generated by graphviz version 2.40.1 (20161225.0304)
 -->
<!-- Title: dependencies Pages: 1 -->
<svg width="755pt" height="284pt"
 viewBox="0.00 0.00 755.00 284.00" xmlns="http://www.w3.org/2000/svg" xmlns:xlink="http://www.w3.org/1999/xlink">
<g id="graph0" class="graph" transform="scale(1 1) rotate(0) translate(4 280)">
<title>dependencies</title>
<polygon fill="#ffffff" stroke="transparent" points="-4,4 -4,-280 751,-280 751,4 -4,4"/>
<text text-anchor="start" x="352.5091" y="-42.4" font-family="sans-serif" font-weight="bold" font-size="14.00" fill="#000000">Legend</text>
<polygon fill="#ffffb3" stroke="transparent" points="139.5,-10 139.5,-30 159.5,-30 159.5,-10 139.5,-10"/>
<text text-anchor="start" x="163.129" y="-15.4" font-family="sans-serif" font-size="14.00" fill="#000000"> &#160;Declarations</text>
<polygon fill="#8dd3c7" stroke="transparent" points="252.5,-10 252.5,-30 272.5,-30 272.5,-10 252.5,-10"/>
<text text-anchor="start" x="276.2251" y="-15.4" font-family="sans-serif" font-size="14.00" fill="#000000"> &#160;Module</text>
<polygon fill="#80b1d3" stroke="transparent" points="338.5,-10 338.5,-30 358.5,-30 358.5,-10 338.5,-10"/>
<text text-anchor="start" x="362.2812" y="-15.4" font-family="sans-serif" font-size="14.00" fill="#000000"> &#160;Bootstrap</text>
<polygon fill="#fdb462" stroke="transparent" points="435.5,-10 435.5,-30 455.5,-30 455.5,-10 435.5,-10"/>
<text text-anchor="start" x="459.1732" y="-15.4" font-family="sans-serif" font-size="14.00" fill="#000000"> &#160;Providers</text>
<polygon fill="#fb8072" stroke="transparent" points="531.5,-10 531.5,-30 551.5,-30 551.5,-10 531.5,-10"/>
<text text-anchor="start" x="555.2258" y="-15.4" font-family="sans-serif" font-size="14.00" fill="#000000"> &#160;Exports</text>
<g id="clust1" class="cluster">
<title>cluster_GraphqlDistributedModule</title>
<polygon fill="none" stroke="#000000" stroke-dasharray="1,5" points="8,-70 8,-268 739,-268 739,-70 8,-70"/>
</g>
<g id="clust4" class="cluster">
<title>cluster_GraphqlDistributedModule_exports</title>
<polygon fill="none" stroke="#000000" points="229,-208 229,-260 551,-260 551,-208 229,-208"/>
</g>
<g id="clust6" class="cluster">
<title>cluster_GraphqlDistributedModule_providers</title>
<polygon fill="none" stroke="#000000" points="16,-78 16,-130 731,-130 731,-78 16,-78"/>
</g>
<!-- GraphQLAstExplorer  -->
<g id="node1" class="node">
<title>GraphQLAstExplorer </title>
<polygon fill="#fb8072" stroke="#000000" points="542.5625,-252 401.4375,-252 401.4375,-216 542.5625,-216 542.5625,-252"/>
<text text-anchor="middle" x="472" y="-229.8" font-family="Times,serif" font-size="14.00" fill="#000000">GraphQLAstExplorer </text>
</g>
<!-- GraphQLTypesLoader  -->
<g id="node2" class="node">
<title>GraphQLTypesLoader </title>
<polygon fill="#fb8072" stroke="#000000" points="383.4952,-252 236.5048,-252 236.5048,-216 383.4952,-216 383.4952,-252"/>
<text text-anchor="middle" x="310" y="-229.8" font-family="Times,serif" font-size="14.00" fill="#000000">GraphQLTypesLoader </text>
</g>
<!-- GraphqlDistributedModule -->
<g id="node3" class="node">
<title>GraphqlDistributedModule</title>
<polygon fill="#8dd3c7" stroke="#000000" points="475.4115,-187 472.4115,-191 451.4115,-191 448.4115,-187 306.5885,-187 306.5885,-151 475.4115,-151 475.4115,-187"/>
<text text-anchor="middle" x="391" y="-164.8" font-family="Times,serif" font-size="14.00" fill="#000000">GraphqlDistributedModule</text>
</g>
<!-- GraphqlDistributedModule&#45;&gt;GraphQLAstExplorer  -->
<g id="edge1" class="edge">
<title>GraphqlDistributedModule&#45;&gt;GraphQLAstExplorer </title>
<path fill="none" stroke="#000000" stroke-dasharray="5,2" d="M438.2123,-187.1061C438.2123,-187.1061 438.2123,-205.991 438.2123,-205.991"/>
<polygon fill="#000000" stroke="#000000" points="434.7124,-205.9909 438.2123,-215.991 441.7124,-205.991 434.7124,-205.9909"/>
</g>
<!-- GraphqlDistributedModule&#45;&gt;GraphQLTypesLoader  -->
<g id="edge2" class="edge">
<title>GraphqlDistributedModule&#45;&gt;GraphQLTypesLoader </title>
<path fill="none" stroke="#000000" stroke-dasharray="5,2" d="M345.1461,-187.1061C345.1461,-187.1061 345.1461,-205.991 345.1461,-205.991"/>
<polygon fill="#000000" stroke="#000000" points="341.6461,-205.9909 345.1461,-215.991 348.6461,-205.991 341.6461,-205.9909"/>
</g>
<!-- GraphQLTypesLoader -->
<g id="node4" class="node">
<title>GraphQLTypesLoader</title>
<ellipse fill="#fdb462" stroke="#000000" cx="624" cy="-104" rx="98.9607" ry="18"/>
<text text-anchor="middle" x="624" y="-99.8" font-family="Times,serif" font-size="14.00" fill="#000000">GraphQLTypesLoader</text>
</g>
<!-- GraphQLTypesLoader&#45;&gt;GraphqlDistributedModule -->
<g id="edge3" class="edge">
<title>GraphQLTypesLoader&#45;&gt;GraphqlDistributedModule</title>
<path fill="none" stroke="#000000" d="M533.9003,-111.4563C533.9003,-128.5297 533.9003,-169 533.9003,-169 533.9003,-169 485.3649,-169 485.3649,-169"/>
<polygon fill="#000000" stroke="#000000" points="485.365,-165.5001 475.3649,-169 485.3649,-172.5001 485.365,-165.5001"/>
</g>
<!-- GraphqlDistributedFactory -->
<g id="node5" class="node">
<title>GraphqlDistributedFactory</title>
<ellipse fill="#fdb462" stroke="#000000" cx="391" cy="-104" rx="115.7484" ry="18"/>
<text text-anchor="middle" x="391" y="-99.8" font-family="Times,serif" font-size="14.00" fill="#000000">GraphqlDistributedFactory</text>
</g>
<!-- GraphqlDistributedFactory&#45;&gt;GraphqlDistributedModule -->
<g id="edge4" class="edge">
<title>GraphqlDistributedFactory&#45;&gt;GraphqlDistributedModule</title>
<path fill="none" stroke="#000000" d="M391,-122.1061C391,-122.1061 391,-140.991 391,-140.991"/>
<polygon fill="#000000" stroke="#000000" points="387.5001,-140.9909 391,-150.991 394.5001,-140.991 387.5001,-140.9909"/>
</g>
<!-- ReferencesExplorerService -->
<g id="node6" class="node">
<title>ReferencesExplorerService</title>
<ellipse fill="#fdb462" stroke="#000000" cx="141" cy="-104" rx="116.8286" ry="18"/>
<text text-anchor="middle" x="141" y="-99.8" font-family="Times,serif" font-size="14.00" fill="#000000">ReferencesExplorerService</text>
</g>
<!-- ReferencesExplorerService&#45;&gt;GraphqlDistributedModule -->
<g id="edge5" class="edge">
<title>ReferencesExplorerService&#45;&gt;GraphqlDistributedModule</title>
<path fill="none" stroke="#000000" d="M247.0833,-111.7116C247.0833,-128.9294 247.0833,-169 247.0833,-169 247.0833,-169 296.4506,-169 296.4506,-169"/>
<polygon fill="#000000" stroke="#000000" points="296.4506,-172.5001 306.4506,-169 296.4506,-165.5001 296.4506,-172.5001"/>
</g>
</g>
</svg>
