<?xml version="1.0" encoding="UTF-8" standalone="no"?>
<!DOCTYPE svg PUBLIC "-//W3C//DTD SVG 1.1//EN"
 "http://www.w3.org/Graphics/SVG/1.1/DTD/svg11.dtd">
<!-- Generated by graphviz version 2.40.1 (20161225.0304)
 -->
<!-- Title: dependencies Pages: 1 -->
<svg width="4127pt" height="298pt"
 viewBox="0.00 0.00 4127.00 298.00" xmlns="http://www.w3.org/2000/svg" xmlns:xlink="http://www.w3.org/1999/xlink">
<g id="graph0" class="graph" transform="scale(1 1) rotate(0) translate(4 294)">
<title>dependencies</title>
<polygon fill="#ffffff" stroke="transparent" points="-4,4 -4,-294 4123,-294 4123,4 -4,4"/>
<text text-anchor="start" x="2038.5091" y="-42.4" font-family="sans-serif" font-weight="bold" font-size="14.00" fill="#000000">Legend</text>
<polygon fill="#ffffb3" stroke="transparent" points="1825.5,-10 1825.5,-30 1845.5,-30 1845.5,-10 1825.5,-10"/>
<text text-anchor="start" x="1849.129" y="-15.4" font-family="sans-serif" font-size="14.00" fill="#000000"> &#160;Declarations</text>
<polygon fill="#8dd3c7" stroke="transparent" points="1938.5,-10 1938.5,-30 1958.5,-30 1958.5,-10 1938.5,-10"/>
<text text-anchor="start" x="1962.2251" y="-15.4" font-family="sans-serif" font-size="14.00" fill="#000000"> &#160;Module</text>
<polygon fill="#80b1d3" stroke="transparent" points="2024.5,-10 2024.5,-30 2044.5,-30 2044.5,-10 2024.5,-10"/>
<text text-anchor="start" x="2048.2812" y="-15.4" font-family="sans-serif" font-size="14.00" fill="#000000"> &#160;Bootstrap</text>
<polygon fill="#fdb462" stroke="transparent" points="2121.5,-10 2121.5,-30 2141.5,-30 2141.5,-10 2121.5,-10"/>
<text text-anchor="start" x="2145.1732" y="-15.4" font-family="sans-serif" font-size="14.00" fill="#000000"> &#160;Providers</text>
<polygon fill="#fb8072" stroke="transparent" points="2217.5,-10 2217.5,-30 2237.5,-30 2237.5,-10 2217.5,-10"/>
<text text-anchor="start" x="2241.2258" y="-15.4" font-family="sans-serif" font-size="14.00" fill="#000000"> &#160;Exports</text>
<g id="clust1" class="cluster">
<title>cluster_AppModule</title>
<polygon fill="none" stroke="#000000" stroke-dasharray="1,5" points="754,-146 754,-274 1774,-274 1774,-146 754,-146"/>
</g>
<g id="clust3" class="cluster">
<title>cluster_AppModule_imports</title>
<polygon fill="none" stroke="#000000" points="900,-154 900,-206 1766,-206 1766,-154 900,-154"/>
</g>
<g id="clust6" class="cluster">
<title>cluster_AppModule_providers</title>
<polygon fill="none" stroke="#000000" points="762,-154 762,-206 892,-206 892,-154 762,-154"/>
</g>
<g id="clust7" class="cluster">
<title>cluster_AuthModule</title>
<polygon fill="none" stroke="#000000" stroke-dasharray="1,5" points="1407,-70 1407,-138 2199,-138 2199,-70 1407,-70"/>
</g>
<g id="clust9" class="cluster">
<title>cluster_AuthModule_imports</title>
<polygon fill="none" stroke="#000000" points="2055,-78 2055,-130 2191,-130 2191,-78 2055,-78"/>
</g>
<g id="clust12" class="cluster">
<title>cluster_AuthModule_providers</title>
<polygon fill="none" stroke="#000000" points="1415,-78 1415,-130 2047,-130 2047,-78 1415,-78"/>
</g>
<g id="clust13" class="cluster">
<title>cluster_CommonModule</title>
<polygon fill="none" stroke="#000000" stroke-dasharray="1,5" points="2207,-70 2207,-282 2859,-282 2859,-70 2207,-70"/>
</g>
<g id="clust16" class="cluster">
<title>cluster_CommonModule_exports</title>
<polygon fill="none" stroke="#000000" points="2215,-222 2215,-274 2851,-274 2851,-222 2215,-222"/>
</g>
<g id="clust18" class="cluster">
<title>cluster_CommonModule_providers</title>
<polygon fill="none" stroke="#000000" points="2457,-78 2457,-130 2625,-130 2625,-78 2457,-78"/>
</g>
<g id="clust19" class="cluster">
<title>cluster_CoreModule</title>
<polygon fill="none" stroke="#000000" stroke-dasharray="1,5" points="2867,-70 2867,-282 3017,-282 3017,-70 2867,-70"/>
</g>
<g id="clust22" class="cluster">
<title>cluster_CoreModule_exports</title>
<polygon fill="none" stroke="#000000" points="2890,-222 2890,-274 2994,-274 2994,-222 2890,-222"/>
</g>
<g id="clust24" class="cluster">
<title>cluster_CoreModule_providers</title>
<polygon fill="none" stroke="#000000" points="2875,-78 2875,-130 3009,-130 3009,-78 2875,-78"/>
</g>
<g id="clust31" class="cluster">
<title>cluster_GraphqlDistributedModule</title>
<polygon fill="none" stroke="#000000" stroke-dasharray="1,5" points="8,-70 8,-138 1069,-138 1069,-70 8,-70"/>
</g>
<g id="clust34" class="cluster">
<title>cluster_GraphqlDistributedModule_exports</title>
<polygon fill="none" stroke="#000000" points="739,-78 739,-130 1061,-130 1061,-78 739,-78"/>
</g>
<g id="clust36" class="cluster">
<title>cluster_GraphqlDistributedModule_providers</title>
<polygon fill="none" stroke="#000000" points="16,-78 16,-130 731,-130 731,-78 16,-78"/>
</g>
<g id="clust37" class="cluster">
<title>cluster_MongoCoreModule</title>
<polygon fill="none" stroke="#000000" stroke-dasharray="1,5" points="3025,-70 3025,-206 3213,-206 3213,-70 3025,-70"/>
</g>
<g id="clust39" class="cluster">
<title>cluster_MongoCoreModule_imports</title>
<polygon fill="none" stroke="#000000" points="3033,-78 3033,-130 3205,-130 3205,-78 3033,-78"/>
</g>
<g id="clust49" class="cluster">
<title>cluster_NestCasbinModule</title>
<polygon fill="none" stroke="#000000" stroke-dasharray="1,5" points="3655,-70 3655,-282 3857,-282 3857,-70 3655,-70"/>
</g>
<g id="clust52" class="cluster">
<title>cluster_NestCasbinModule_exports</title>
<polygon fill="none" stroke="#000000" points="3685,-222 3685,-274 3827,-274 3827,-222 3685,-222"/>
</g>
<g id="clust54" class="cluster">
<title>cluster_NestCasbinModule_providers</title>
<polygon fill="none" stroke="#000000" points="3663,-78 3663,-130 3849,-130 3849,-78 3663,-78"/>
</g>
<g id="clust55" class="cluster">
<title>cluster_NestjsEventStoreModule</title>
<polygon fill="none" stroke="#000000" stroke-dasharray="1,5" points="3865,-70 3865,-282 4111,-282 4111,-70 3865,-70"/>
</g>
<g id="clust58" class="cluster">
<title>cluster_NestjsEventStoreModule_exports</title>
<polygon fill="none" stroke="#000000" points="3901,-222 3901,-274 4075,-274 4075,-222 3901,-222"/>
</g>
<g id="clust60" class="cluster">
<title>cluster_NestjsEventStoreModule_providers</title>
<polygon fill="none" stroke="#000000" points="3873,-78 3873,-130 4103,-130 4103,-78 3873,-78"/>
</g>
<g id="clust61" class="cluster">
<title>cluster_NestMultiTenantModule</title>
<polygon fill="none" stroke="#000000" stroke-dasharray="1,5" points="3221,-146 3221,-214 3647,-214 3647,-146 3221,-146"/>
</g>
<g id="clust64" class="cluster">
<title>cluster_NestMultiTenantModule_exports</title>
<polygon fill="none" stroke="#000000" points="3465,-154 3465,-206 3639,-206 3639,-154 3465,-154"/>
</g>
<g id="clust66" class="cluster">
<title>cluster_NestMultiTenantModule_providers</title>
<polygon fill="none" stroke="#000000" points="3229,-154 3229,-206 3457,-206 3457,-154 3229,-154"/>
</g>
<g id="clust67" class="cluster">
<title>cluster_ProjectModule</title>
<polygon fill="none" stroke="#000000" stroke-dasharray="1,5" points="1077,-70 1077,-138 1243,-138 1243,-70 1077,-70"/>
</g>
<g id="clust72" class="cluster">
<title>cluster_ProjectModule_providers</title>
<polygon fill="none" stroke="#000000" points="1085,-78 1085,-130 1235,-130 1235,-78 1085,-78"/>
</g>
<g id="clust73" class="cluster">
<title>cluster_RepositoryModule</title>
<polygon fill="none" stroke="#000000" stroke-dasharray="1,5" points="1886,-146 1886,-214 2196,-214 2196,-146 1886,-146"/>
</g>
<g id="clust76" class="cluster">
<title>cluster_RepositoryModule_exports</title>
<polygon fill="none" stroke="#000000" points="2064,-154 2064,-206 2188,-206 2188,-154 2064,-154"/>
</g>
<g id="clust78" class="cluster">
<title>cluster_RepositoryModule_providers</title>
<polygon fill="none" stroke="#000000" points="1894,-154 1894,-206 2056,-206 2056,-154 1894,-154"/>
</g>
<g id="clust79" class="cluster">
<title>cluster_UserModule</title>
<polygon fill="none" stroke="#000000" stroke-dasharray="1,5" points="1251,-70 1251,-138 1399,-138 1399,-70 1251,-70"/>
</g>
<g id="clust84" class="cluster">
<title>cluster_UserModule_providers</title>
<polygon fill="none" stroke="#000000" points="1259,-78 1259,-130 1391,-130 1391,-78 1259,-78"/>
</g>
<!-- GraphqlDistributedGatewayModule -->
<g id="node1" class="node">
<title>GraphqlDistributedGatewayModule</title>
<polygon fill="#8dd3c7" stroke="#000000" points="1758.1587,-198 1755.1587,-202 1734.1587,-202 1731.1587,-198 1539.8413,-198 1539.8413,-162 1758.1587,-162 1758.1587,-198"/>
<text text-anchor="middle" x="1649" y="-175.8" font-family="Times,serif" font-size="14.00" fill="#000000">GraphqlDistributedGatewayModule</text>
</g>
<!-- AppModule -->
<g id="node2" class="node">
<title>AppModule</title>
<polygon fill="#8dd3c7" stroke="#000000" points="1033.6571,-266 1030.6571,-270 1009.6571,-270 1006.6571,-266 950.3429,-266 950.3429,-230 1033.6571,-230 1033.6571,-266"/>
<text text-anchor="middle" x="992" y="-243.8" font-family="Times,serif" font-size="14.00" fill="#000000">AppModule</text>
</g>
<!-- GraphqlDistributedGatewayModule&#45;&gt;AppModule -->
<g id="edge1" class="edge">
<title>GraphqlDistributedGatewayModule&#45;&gt;AppModule</title>
<path fill="none" stroke="#000000" d="M1649,-198.1532C1649,-221.7566 1649,-260 1649,-260 1649,-260 1043.8469,-260 1043.8469,-260"/>
<polygon fill="#000000" stroke="#000000" points="1043.8469,-256.5001 1033.8469,-260 1043.8469,-263.5001 1043.8469,-256.5001"/>
</g>
<!-- AppService -->
<g id="node3" class="node">
<title>AppService</title>
<ellipse fill="#fdb462" stroke="#000000" cx="827" cy="-180" rx="56.7406" ry="18"/>
<text text-anchor="middle" x="827" y="-175.8" font-family="Times,serif" font-size="14.00" fill="#000000">AppService</text>
</g>
<!-- AppService&#45;&gt;AppModule -->
<g id="edge2" class="edge">
<title>AppService&#45;&gt;AppModule</title>
<path fill="none" stroke="#000000" d="M838.324,-197.7615C838.324,-217.0068 838.324,-245 838.324,-245 838.324,-245 940.0074,-245 940.0074,-245"/>
<polygon fill="#000000" stroke="#000000" points="940.0074,-248.5001 950.0074,-245 940.0073,-241.5001 940.0074,-248.5001"/>
</g>
<!-- AppService&#45;&gt;AppModule -->
<g id="edge6" class="edge">
<title>AppService&#45;&gt;AppModule</title>
<path fill="none" stroke="#000000" d="M815.676,-197.7978C815.676,-219.119 815.676,-252 815.676,-252 815.676,-252 940.2137,-252 940.2137,-252"/>
<polygon fill="#000000" stroke="#000000" points="940.2137,-255.5001 950.2137,-252 940.2136,-248.5001 940.2137,-255.5001"/>
</g>
<!-- AppService&#45;&gt;AppModule -->
<g id="edge9" class="edge">
<title>AppService&#45;&gt;AppModule</title>
<path fill="none" stroke="#000000" d="M860.9721,-194.6358C860.9721,-211.8179 860.9721,-238 860.9721,-238 860.9721,-238 940.1817,-238 940.1817,-238"/>
<polygon fill="#000000" stroke="#000000" points="940.1817,-241.5001 950.1817,-238 940.1817,-234.5001 940.1817,-241.5001"/>
</g>
<!-- AppService&#45;&gt;AppModule -->
<g id="edge12" class="edge">
<title>AppService&#45;&gt;AppModule</title>
<path fill="none" stroke="#000000" d="M793.0279,-194.4898C793.0279,-217.2964 793.0279,-259 793.0279,-259 793.0279,-259 940.2889,-259 940.2889,-259"/>
<polygon fill="#000000" stroke="#000000" points="940.289,-262.5001 950.2889,-259 940.2889,-255.5001 940.289,-262.5001"/>
</g>
<!-- AuthModule -->
<g id="node4" class="node">
<title>AuthModule</title>
<polygon fill="#8dd3c7" stroke="#000000" points="1521.5482,-198 1518.5482,-202 1497.5482,-202 1494.5482,-198 1434.4518,-198 1434.4518,-162 1521.5482,-162 1521.5482,-198"/>
<text text-anchor="middle" x="1478" y="-175.8" font-family="Times,serif" font-size="14.00" fill="#000000">AuthModule</text>
</g>
<!-- AuthModule&#45;&gt;AppModule -->
<g id="edge3" class="edge">
<title>AuthModule&#45;&gt;AppModule</title>
<path fill="none" stroke="#000000" d="M1478,-198.2921C1478,-220.2057 1478,-254 1478,-254 1478,-254 1043.8567,-254 1043.8567,-254"/>
<polygon fill="#000000" stroke="#000000" points="1043.8568,-250.5001 1033.8567,-254 1043.8567,-257.5001 1043.8568,-250.5001"/>
</g>
<!-- GraphqlDistributedModule -->
<g id="node5" class="node">
<title>GraphqlDistributedModule</title>
<polygon fill="#8dd3c7" stroke="#000000" points="1076.4115,-198 1073.4115,-202 1052.4115,-202 1049.4115,-198 907.5885,-198 907.5885,-162 1076.4115,-162 1076.4115,-198"/>
<text text-anchor="middle" x="992" y="-175.8" font-family="Times,serif" font-size="14.00" fill="#000000">GraphqlDistributedModule</text>
</g>
<!-- GraphqlDistributedModule&#45;&gt;AppModule -->
<g id="edge4" class="edge">
<title>GraphqlDistributedModule&#45;&gt;AppModule</title>
<path fill="none" stroke="#000000" d="M1012.9141,-198.2228C1012.9141,-198.2228 1012.9141,-219.7269 1012.9141,-219.7269"/>
<polygon fill="#000000" stroke="#000000" points="1009.4142,-219.7269 1012.9141,-229.7269 1016.4142,-219.727 1009.4142,-219.7269"/>
</g>
<!-- GraphqlDistributedModule&#45;&gt;AppModule -->
<g id="edge7" class="edge">
<title>GraphqlDistributedModule&#45;&gt;AppModule</title>
<path fill="none" stroke="#000000" d="M992,-198.2228C992,-198.2228 992,-219.7269 992,-219.7269"/>
<polygon fill="#000000" stroke="#000000" points="988.5001,-219.7269 992,-229.7269 995.5001,-219.727 988.5001,-219.7269"/>
</g>
<!-- GraphqlDistributedModule&#45;&gt;AppModule -->
<g id="edge10" class="edge">
<title>GraphqlDistributedModule&#45;&gt;AppModule</title>
<path fill="none" stroke="#000000" d="M971.0859,-198.2228C971.0859,-198.2228 971.0859,-219.7269 971.0859,-219.7269"/>
<polygon fill="#000000" stroke="#000000" points="967.586,-219.7269 971.0859,-229.7269 974.586,-219.727 967.586,-219.7269"/>
</g>
<!-- GraphQLAstExplorer  -->
<g id="node24" class="node">
<title>GraphQLAstExplorer </title>
<polygon fill="#fb8072" stroke="#000000" points="1052.5625,-122 911.4375,-122 911.4375,-86 1052.5625,-86 1052.5625,-122"/>
<text text-anchor="middle" x="982" y="-99.8" font-family="Times,serif" font-size="14.00" fill="#000000">GraphQLAstExplorer </text>
</g>
<!-- GraphqlDistributedModule&#45;&gt;GraphQLAstExplorer  -->
<g id="edge26" class="edge">
<title>GraphqlDistributedModule&#45;&gt;GraphQLAstExplorer </title>
<path fill="none" stroke="#000000" stroke-dasharray="5,2" d="M1024.4685,-161.9891C1024.4685,-161.9891 1024.4685,-132.145 1024.4685,-132.145"/>
<polygon fill="#000000" stroke="#000000" points="1027.9686,-132.145 1024.4685,-122.145 1020.9686,-132.1451 1027.9686,-132.145"/>
</g>
<!-- GraphQLTypesLoader  -->
<g id="node25" class="node">
<title>GraphQLTypesLoader </title>
<polygon fill="#fb8072" stroke="#000000" points="893.4952,-122 746.5048,-122 746.5048,-86 893.4952,-86 893.4952,-122"/>
<text text-anchor="middle" x="820" y="-99.8" font-family="Times,serif" font-size="14.00" fill="#000000">GraphQLTypesLoader </text>
</g>
<!-- GraphqlDistributedModule&#45;&gt;GraphQLTypesLoader  -->
<g id="edge27" class="edge">
<title>GraphqlDistributedModule&#45;&gt;GraphQLTypesLoader </title>
<path fill="none" stroke="#000000" stroke-dasharray="5,2" d="M907.5316,-180C896.293,-180 888.5589,-180 888.5589,-180 888.5589,-180 888.5589,-132.0109 888.5589,-132.0109"/>
<polygon fill="#000000" stroke="#000000" points="892.059,-132.0109 888.5589,-122.0109 885.059,-132.011 892.059,-132.0109"/>
</g>
<!-- MongoModule -->
<g id="node6" class="node">
<title>MongoModule</title>
<polygon fill="#8dd3c7" stroke="#000000" points="1311.9944,-198 1308.9944,-202 1287.9944,-202 1284.9944,-198 1212.0056,-198 1212.0056,-162 1311.9944,-162 1311.9944,-198"/>
<text text-anchor="middle" x="1262" y="-175.8" font-family="Times,serif" font-size="14.00" fill="#000000">MongoModule</text>
</g>
<!-- MongoModule&#45;&gt;AppModule -->
<g id="edge5" class="edge">
<title>MongoModule&#45;&gt;AppModule</title>
<path fill="none" stroke="#000000" d="M1262,-198.2667C1262,-216.5552 1262,-242 1262,-242 1262,-242 1043.8913,-242 1043.8913,-242"/>
<polygon fill="#000000" stroke="#000000" points="1043.8913,-238.5001 1033.8913,-242 1043.8912,-245.5001 1043.8913,-238.5001"/>
</g>
<!-- ProjectModule -->
<g id="node7" class="node">
<title>ProjectModule</title>
<polygon fill="#8dd3c7" stroke="#000000" points="1193.7036,-198 1190.7036,-202 1169.7036,-202 1166.7036,-198 1094.2964,-198 1094.2964,-162 1193.7036,-162 1193.7036,-198"/>
<text text-anchor="middle" x="1144" y="-175.8" font-family="Times,serif" font-size="14.00" fill="#000000">ProjectModule</text>
</g>
<!-- ProjectModule&#45;&gt;AppModule -->
<g id="edge8" class="edge">
<title>ProjectModule&#45;&gt;AppModule</title>
<path fill="none" stroke="#000000" d="M1144,-198.027C1144,-214.3976 1144,-236 1144,-236 1144,-236 1043.937,-236 1043.937,-236"/>
<polygon fill="#000000" stroke="#000000" points="1043.9371,-232.5001 1033.937,-236 1043.937,-239.5001 1043.9371,-232.5001"/>
</g>
<!-- UserModule -->
<g id="node8" class="node">
<title>UserModule</title>
<polygon fill="#8dd3c7" stroke="#000000" points="1415.9762,-198 1412.9762,-202 1391.9762,-202 1388.9762,-198 1330.0238,-198 1330.0238,-162 1415.9762,-162 1415.9762,-198"/>
<text text-anchor="middle" x="1373" y="-175.8" font-family="Times,serif" font-size="14.00" fill="#000000">UserModule</text>
</g>
<!-- UserModule&#45;&gt;AppModule -->
<g id="edge11" class="edge">
<title>UserModule&#45;&gt;AppModule</title>
<path fill="none" stroke="#000000" d="M1373,-198.2228C1373,-218.3652 1373,-248 1373,-248 1373,-248 1043.8635,-248 1043.8635,-248"/>
<polygon fill="#000000" stroke="#000000" points="1043.8636,-244.5001 1033.8635,-248 1043.8635,-251.5001 1043.8636,-244.5001"/>
</g>
<!-- RepositoryModule -->
<g id="node9" class="node">
<title>RepositoryModule</title>
<polygon fill="#8dd3c7" stroke="#000000" points="2183.4874,-122 2180.4874,-126 2159.4874,-126 2156.4874,-122 2062.5126,-122 2062.5126,-86 2183.4874,-86 2183.4874,-122"/>
<text text-anchor="middle" x="2123" y="-99.8" font-family="Times,serif" font-size="14.00" fill="#000000">RepositoryModule</text>
</g>
<!-- RepositoryModule&#45;&gt;AuthModule -->
<g id="edge13" class="edge">
<title>RepositoryModule&#45;&gt;AuthModule</title>
<path fill="none" stroke="#000000" d="M2067.0194,-122.2396C2067.0194,-137.5706 2067.0194,-157 2067.0194,-157 2067.0194,-157 1507.1823,-157 1507.1823,-157 1507.1823,-157 1507.1823,-157.4878 1507.1823,-157.4878"/>
<polygon fill="#000000" stroke="#000000" points="1503.6826,-151.8776 1507.1823,-161.8777 1510.6826,-151.8778 1503.6826,-151.8776"/>
</g>
<!-- AuthRepository  -->
<g id="node40" class="node">
<title>AuthRepository </title>
<polygon fill="#fb8072" stroke="#000000" points="2180.4348,-198 2071.5652,-198 2071.5652,-162 2180.4348,-162 2180.4348,-198"/>
<text text-anchor="middle" x="2126" y="-175.8" font-family="Times,serif" font-size="14.00" fill="#000000">AuthRepository </text>
</g>
<!-- RepositoryModule&#45;&gt;AuthRepository  -->
<g id="edge39" class="edge">
<title>RepositoryModule&#45;&gt;AuthRepository </title>
<path fill="none" stroke="#000000" stroke-dasharray="5,2" d="M2126,-122.0109C2126,-122.0109 2126,-151.855 2126,-151.855"/>
<polygon fill="#000000" stroke="#000000" points="2122.5001,-151.8549 2126,-161.855 2129.5001,-151.855 2122.5001,-151.8549"/>
</g>
<!-- AuthService -->
<g id="node10" class="node">
<title>AuthService</title>
<ellipse fill="#fdb462" stroke="#000000" cx="1980" cy="-104" rx="59.1083" ry="18"/>
<text text-anchor="middle" x="1980" y="-99.8" font-family="Times,serif" font-size="14.00" fill="#000000">AuthService</text>
</g>
<!-- AuthService&#45;&gt;AuthModule -->
<g id="edge14" class="edge">
<title>AuthService&#45;&gt;AuthModule</title>
<path fill="none" stroke="#000000" d="M1980,-122.1467C1980,-135.7395 1980,-152 1980,-152 1980,-152 1492.5912,-152 1492.5912,-152 1492.5912,-152 1492.5912,-152.9793 1492.5912,-152.9793"/>
<polygon fill="#000000" stroke="#000000" points="1489.0913,-151.793 1492.5912,-161.793 1496.0913,-151.7931 1489.0913,-151.793"/>
</g>
<!-- CookieSerializer -->
<g id="node11" class="node">
<title>CookieSerializer</title>
<ellipse fill="#fdb462" stroke="#000000" cx="1827" cy="-104" rx="75.8566" ry="18"/>
<text text-anchor="middle" x="1827" y="-99.8" font-family="Times,serif" font-size="14.00" fill="#000000">CookieSerializer</text>
</g>
<!-- CookieSerializer&#45;&gt;AuthModule -->
<g id="edge15" class="edge">
<title>CookieSerializer&#45;&gt;AuthModule</title>
<path fill="none" stroke="#000000" d="M1754.5755,-109.6215C1754.5755,-121.2772 1754.5755,-147 1754.5755,-147 1754.5755,-147 1478,-147 1478,-147 1478,-147 1478,-151.9551 1478,-151.9551"/>
<polygon fill="#000000" stroke="#000000" points="1474.5001,-151.9551 1478,-161.9551 1481.5001,-151.9552 1474.5001,-151.9551"/>
</g>
<!-- FacebookStrategy -->
<g id="node12" class="node">
<title>FacebookStrategy</title>
<ellipse fill="#fdb462" stroke="#000000" cx="1652" cy="-104" rx="80.52" ry="18"/>
<text text-anchor="middle" x="1652" y="-99.8" font-family="Times,serif" font-size="14.00" fill="#000000">FacebookStrategy</text>
</g>
<!-- FacebookStrategy&#45;&gt;AuthModule -->
<g id="edge16" class="edge">
<title>FacebookStrategy&#45;&gt;AuthModule</title>
<path fill="none" stroke="#000000" d="M1652,-122.1097C1652,-131.897 1652,-142 1652,-142 1652,-142 1463.4088,-142 1463.4088,-142 1463.4088,-142 1463.4088,-151.8903 1463.4088,-151.8903"/>
<polygon fill="#000000" stroke="#000000" points="1459.9089,-151.8903 1463.4088,-161.8903 1466.9089,-151.8904 1459.9089,-151.8903"/>
</g>
<!-- LocalStrategy -->
<g id="node13" class="node">
<title>LocalStrategy</title>
<ellipse fill="#fdb462" stroke="#000000" cx="1488" cy="-104" rx="65.4053" ry="18"/>
<text text-anchor="middle" x="1488" y="-99.8" font-family="Times,serif" font-size="14.00" fill="#000000">LocalStrategy</text>
</g>
<!-- LocalStrategy&#45;&gt;AuthModule -->
<g id="edge17" class="edge">
<title>LocalStrategy&#45;&gt;AuthModule</title>
<path fill="none" stroke="#000000" d="M1448.8177,-118.6536C1448.8177,-118.6536 1448.8177,-151.9047 1448.8177,-151.9047"/>
<polygon fill="#000000" stroke="#000000" points="1445.3178,-151.9047 1448.8177,-161.9047 1452.3178,-151.9048 1445.3178,-151.9047"/>
</g>
<!-- AwsS3Service  -->
<g id="node14" class="node">
<title>AwsS3Service </title>
<polygon fill="#fb8072" stroke="#000000" points="2842.918,-266 2741.082,-266 2741.082,-230 2842.918,-230 2842.918,-266"/>
<text text-anchor="middle" x="2792" y="-243.8" font-family="Times,serif" font-size="14.00" fill="#000000">AwsS3Service </text>
</g>
<!-- CommonService  -->
<g id="node15" class="node">
<title>CommonService </title>
<polygon fill="#fb8072" stroke="#000000" points="2722.5961,-266 2609.4039,-266 2609.4039,-230 2722.5961,-230 2722.5961,-266"/>
<text text-anchor="middle" x="2666" y="-243.8" font-family="Times,serif" font-size="14.00" fill="#000000">CommonService </text>
</g>
<!-- ConfigService  -->
<g id="node16" class="node">
<title>ConfigService </title>
<polygon fill="#fb8072" stroke="#000000" points="2591.3661,-266 2490.6339,-266 2490.6339,-230 2591.3661,-230 2591.3661,-266"/>
<text text-anchor="middle" x="2541" y="-243.8" font-family="Times,serif" font-size="14.00" fill="#000000">ConfigService </text>
</g>
<!-- GeneratorService  -->
<g id="node17" class="node">
<title>GeneratorService </title>
<polygon fill="#fb8072" stroke="#000000" points="2472.9406,-266 2355.0594,-266 2355.0594,-230 2472.9406,-230 2472.9406,-266"/>
<text text-anchor="middle" x="2414" y="-243.8" font-family="Times,serif" font-size="14.00" fill="#000000">GeneratorService </text>
</g>
<!-- ValidatorService  -->
<g id="node18" class="node">
<title>ValidatorService </title>
<polygon fill="#fb8072" stroke="#000000" points="2337.3463,-266 2222.6537,-266 2222.6537,-230 2337.3463,-230 2337.3463,-266"/>
<text text-anchor="middle" x="2280" y="-243.8" font-family="Times,serif" font-size="14.00" fill="#000000">ValidatorService </text>
</g>
<!-- CommonModule -->
<g id="node19" class="node">
<title>CommonModule</title>
<polygon fill="#8dd3c7" stroke="#000000" points="2596.6681,-198 2593.6681,-202 2572.6681,-202 2569.6681,-198 2485.3319,-198 2485.3319,-162 2596.6681,-162 2596.6681,-198"/>
<text text-anchor="middle" x="2541" y="-175.8" font-family="Times,serif" font-size="14.00" fill="#000000">CommonModule</text>
</g>
<!-- CommonModule&#45;&gt;AwsS3Service  -->
<g id="edge18" class="edge">
<title>CommonModule&#45;&gt;AwsS3Service </title>
<path fill="none" stroke="#000000" stroke-dasharray="5,2" d="M2596.705,-174C2670.6517,-174 2792,-174 2792,-174 2792,-174 2792,-219.7079 2792,-219.7079"/>
<polygon fill="#000000" stroke="#000000" points="2788.5001,-219.7078 2792,-229.7079 2795.5001,-219.7079 2788.5001,-219.7078"/>
</g>
<!-- CommonModule&#45;&gt;CommonService  -->
<g id="edge19" class="edge">
<title>CommonModule&#45;&gt;CommonService </title>
<path fill="none" stroke="#000000" stroke-dasharray="5,2" d="M2596.7178,-186C2606.2086,-186 2613.072,-186 2613.072,-186 2613.072,-186 2613.072,-219.7333 2613.072,-219.7333"/>
<polygon fill="#000000" stroke="#000000" points="2609.5721,-219.7333 2613.072,-229.7333 2616.5721,-219.7333 2609.5721,-219.7333"/>
</g>
<!-- CommonModule&#45;&gt;ConfigService  -->
<g id="edge20" class="edge">
<title>CommonModule&#45;&gt;ConfigService </title>
<path fill="none" stroke="#000000" stroke-dasharray="5,2" d="M2541,-198.2228C2541,-198.2228 2541,-219.7269 2541,-219.7269"/>
<polygon fill="#000000" stroke="#000000" points="2537.5001,-219.7269 2541,-229.7269 2544.5001,-219.727 2537.5001,-219.7269"/>
</g>
<!-- CommonModule&#45;&gt;GeneratorService  -->
<g id="edge21" class="edge">
<title>CommonModule&#45;&gt;GeneratorService </title>
<path fill="none" stroke="#000000" stroke-dasharray="5,2" d="M2485.2521,-186C2475.7562,-186 2468.8891,-186 2468.8891,-186 2468.8891,-186 2468.8891,-219.7333 2468.8891,-219.7333"/>
<polygon fill="#000000" stroke="#000000" points="2465.3892,-219.7333 2468.8891,-229.7333 2472.3892,-219.7333 2465.3892,-219.7333"/>
</g>
<!-- CommonModule&#45;&gt;ValidatorService  -->
<g id="edge22" class="edge">
<title>CommonModule&#45;&gt;ValidatorService </title>
<path fill="none" stroke="#000000" stroke-dasharray="5,2" d="M2485.3291,-174C2408.6762,-174 2280,-174 2280,-174 2280,-174 2280,-219.7079 2280,-219.7079"/>
<polygon fill="#000000" stroke="#000000" points="2276.5001,-219.7078 2280,-229.7079 2283.5001,-219.7079 2276.5001,-219.7078"/>
</g>
<!-- CommonService -->
<g id="node20" class="node">
<title>CommonService</title>
<ellipse fill="#fdb462" stroke="#000000" cx="2541" cy="-104" rx="75.8836" ry="18"/>
<text text-anchor="middle" x="2541" y="-99.8" font-family="Times,serif" font-size="14.00" fill="#000000">CommonService</text>
</g>
<!-- CommonService&#45;&gt;CommonModule -->
<g id="edge23" class="edge">
<title>CommonService&#45;&gt;CommonModule</title>
<path fill="none" stroke="#000000" d="M2541,-122.0109C2541,-122.0109 2541,-151.855 2541,-151.855"/>
<polygon fill="#000000" stroke="#000000" points="2537.5001,-151.8549 2541,-161.855 2544.5001,-151.855 2537.5001,-151.8549"/>
</g>
<!-- CoreService  -->
<g id="node21" class="node">
<title>CoreService </title>
<polygon fill="#fb8072" stroke="#000000" points="2986.1899,-266 2897.8101,-266 2897.8101,-230 2986.1899,-230 2986.1899,-266"/>
<text text-anchor="middle" x="2942" y="-243.8" font-family="Times,serif" font-size="14.00" fill="#000000">CoreService </text>
</g>
<!-- CoreModule -->
<g id="node22" class="node">
<title>CoreModule</title>
<polygon fill="#8dd3c7" stroke="#000000" points="2985.2619,-198 2982.2619,-202 2961.2619,-202 2958.2619,-198 2898.7381,-198 2898.7381,-162 2985.2619,-162 2985.2619,-198"/>
<text text-anchor="middle" x="2942" y="-175.8" font-family="Times,serif" font-size="14.00" fill="#000000">CoreModule</text>
</g>
<!-- CoreModule&#45;&gt;CoreService  -->
<g id="edge24" class="edge">
<title>CoreModule&#45;&gt;CoreService </title>
<path fill="none" stroke="#000000" stroke-dasharray="5,2" d="M2942,-198.2228C2942,-198.2228 2942,-219.7269 2942,-219.7269"/>
<polygon fill="#000000" stroke="#000000" points="2938.5001,-219.7269 2942,-229.7269 2945.5001,-219.727 2938.5001,-219.7269"/>
</g>
<!-- CoreService -->
<g id="node23" class="node">
<title>CoreService</title>
<ellipse fill="#fdb462" stroke="#000000" cx="2942" cy="-104" rx="58.5251" ry="18"/>
<text text-anchor="middle" x="2942" y="-99.8" font-family="Times,serif" font-size="14.00" fill="#000000">CoreService</text>
</g>
<!-- CoreService&#45;&gt;CoreModule -->
<g id="edge25" class="edge">
<title>CoreService&#45;&gt;CoreModule</title>
<path fill="none" stroke="#000000" d="M2942,-122.0109C2942,-122.0109 2942,-151.855 2942,-151.855"/>
<polygon fill="#000000" stroke="#000000" points="2938.5001,-151.8549 2942,-161.855 2945.5001,-151.855 2938.5001,-151.8549"/>
</g>
<!-- GraphQLTypesLoader -->
<g id="node26" class="node">
<title>GraphQLTypesLoader</title>
<ellipse fill="#fdb462" stroke="#000000" cx="624" cy="-104" rx="98.9607" ry="18"/>
<text text-anchor="middle" x="624" y="-99.8" font-family="Times,serif" font-size="14.00" fill="#000000">GraphQLTypesLoader</text>
</g>
<!-- GraphQLTypesLoader&#45;&gt;GraphqlDistributedModule -->
<g id="edge28" class="edge">
<title>GraphQLTypesLoader&#45;&gt;GraphqlDistributedModule</title>
<path fill="none" stroke="#000000" d="M624,-122.1223C624,-124.9729 624,-127 624,-127 624,-127 996.1562,-127 996.1562,-127 996.1562,-127 996.1562,-151.7604 996.1562,-151.7604"/>
<polygon fill="#000000" stroke="#000000" points="992.6563,-151.7604 996.1562,-161.7604 999.6563,-151.7604 992.6563,-151.7604"/>
</g>
<!-- GraphqlDistributedFactory -->
<g id="node27" class="node">
<title>GraphqlDistributedFactory</title>
<ellipse fill="#fdb462" stroke="#000000" cx="391" cy="-104" rx="115.7484" ry="18"/>
<text text-anchor="middle" x="391" y="-99.8" font-family="Times,serif" font-size="14.00" fill="#000000">GraphqlDistributedFactory</text>
</g>
<!-- GraphqlDistributedFactory&#45;&gt;GraphqlDistributedModule -->
<g id="edge29" class="edge">
<title>GraphqlDistributedFactory&#45;&gt;GraphqlDistributedModule</title>
<path fill="none" stroke="#000000" d="M391,-122.207C391,-127.5549 391,-132 391,-132 391,-132 967.8438,-132 967.8438,-132 967.8438,-132 967.8438,-151.8533 967.8438,-151.8533"/>
<polygon fill="#000000" stroke="#000000" points="964.3439,-151.8532 967.8438,-161.8533 971.3439,-151.8533 964.3439,-151.8532"/>
</g>
<!-- ReferencesExplorerService -->
<g id="node28" class="node">
<title>ReferencesExplorerService</title>
<ellipse fill="#fdb462" stroke="#000000" cx="141" cy="-104" rx="116.8286" ry="18"/>
<text text-anchor="middle" x="141" y="-99.8" font-family="Times,serif" font-size="14.00" fill="#000000">ReferencesExplorerService</text>
</g>
<!-- ReferencesExplorerService&#45;&gt;GraphqlDistributedModule -->
<g id="edge30" class="edge">
<title>ReferencesExplorerService&#45;&gt;GraphqlDistributedModule</title>
<path fill="none" stroke="#000000" d="M141,-122.0449C141,-129.749 141,-137 141,-137 141,-137 939.5315,-137 939.5315,-137 939.5315,-137 939.5315,-151.5146 939.5315,-151.5146"/>
<polygon fill="#000000" stroke="#000000" points="936.0316,-151.5145 939.5315,-161.5146 943.0316,-151.5146 936.0316,-151.5145"/>
</g>
<!-- NestMultiTenantModule -->
<g id="node29" class="node">
<title>NestMultiTenantModule</title>
<polygon fill="#8dd3c7" stroke="#000000" points="3196.6951,-122 3193.6951,-126 3172.6951,-126 3169.6951,-122 3041.3049,-122 3041.3049,-86 3196.6951,-86 3196.6951,-122"/>
<text text-anchor="middle" x="3119" y="-99.8" font-family="Times,serif" font-size="14.00" fill="#000000">NestMultiTenantModule</text>
</g>
<!-- MongoCoreModule -->
<g id="node30" class="node">
<title>MongoCoreModule</title>
<polygon fill="#8dd3c7" stroke="#000000" points="3182.7064,-198 3179.7064,-202 3158.7064,-202 3155.7064,-198 3055.2936,-198 3055.2936,-162 3182.7064,-162 3182.7064,-198"/>
<text text-anchor="middle" x="3119" y="-175.8" font-family="Times,serif" font-size="14.00" fill="#000000">MongoCoreModule</text>
</g>
<!-- NestMultiTenantModule&#45;&gt;MongoCoreModule -->
<g id="edge31" class="edge">
<title>NestMultiTenantModule&#45;&gt;MongoCoreModule</title>
<path fill="none" stroke="#000000" d="M3119,-122.0109C3119,-122.0109 3119,-151.855 3119,-151.855"/>
<polygon fill="#000000" stroke="#000000" points="3115.5001,-151.8549 3119,-161.855 3122.5001,-151.855 3115.5001,-151.8549"/>
</g>
<!-- NestMultiTenantService  -->
<g id="node37" class="node">
<title>NestMultiTenantService </title>
<polygon fill="#fb8072" stroke="#000000" points="3630.6228,-198 3473.3772,-198 3473.3772,-162 3630.6228,-162 3630.6228,-198"/>
<text text-anchor="middle" x="3552" y="-175.8" font-family="Times,serif" font-size="14.00" fill="#000000">NestMultiTenantService </text>
</g>
<!-- NestMultiTenantModule&#45;&gt;NestMultiTenantService  -->
<g id="edge36" class="edge">
<title>NestMultiTenantModule&#45;&gt;NestMultiTenantService </title>
<path fill="none" stroke="#000000" stroke-dasharray="5,2" d="M3196.6616,-104C3321.2666,-104 3552,-104 3552,-104 3552,-104 3552,-151.9891 3552,-151.9891"/>
<polygon fill="#000000" stroke="#000000" points="3548.5001,-151.989 3552,-161.9891 3555.5001,-151.9891 3548.5001,-151.989"/>
</g>
<!-- NestCasbinService  -->
<g id="node31" class="node">
<title>NestCasbinService </title>
<polygon fill="#fb8072" stroke="#000000" points="3819.0204,-266 3692.9796,-266 3692.9796,-230 3819.0204,-230 3819.0204,-266"/>
<text text-anchor="middle" x="3756" y="-243.8" font-family="Times,serif" font-size="14.00" fill="#000000">NestCasbinService </text>
</g>
<!-- NestCasbinModule -->
<g id="node32" class="node">
<title>NestCasbinModule</title>
<polygon fill="#8dd3c7" stroke="#000000" points="3818.0926,-198 3815.0926,-202 3794.0926,-202 3791.0926,-198 3693.9074,-198 3693.9074,-162 3818.0926,-162 3818.0926,-198"/>
<text text-anchor="middle" x="3756" y="-175.8" font-family="Times,serif" font-size="14.00" fill="#000000">NestCasbinModule</text>
</g>
<!-- NestCasbinModule&#45;&gt;NestCasbinService  -->
<g id="edge32" class="edge">
<title>NestCasbinModule&#45;&gt;NestCasbinService </title>
<path fill="none" stroke="#000000" stroke-dasharray="5,2" d="M3756,-198.2228C3756,-198.2228 3756,-219.7269 3756,-219.7269"/>
<polygon fill="#000000" stroke="#000000" points="3752.5001,-219.7269 3756,-229.7269 3759.5001,-219.727 3752.5001,-219.7269"/>
</g>
<!-- NestCasbinService -->
<g id="node33" class="node">
<title>NestCasbinService</title>
<ellipse fill="#fdb462" stroke="#000000" cx="3756" cy="-104" rx="84.5247" ry="18"/>
<text text-anchor="middle" x="3756" y="-99.8" font-family="Times,serif" font-size="14.00" fill="#000000">NestCasbinService</text>
</g>
<!-- NestCasbinService&#45;&gt;NestCasbinModule -->
<g id="edge33" class="edge">
<title>NestCasbinService&#45;&gt;NestCasbinModule</title>
<path fill="none" stroke="#000000" d="M3756,-122.0109C3756,-122.0109 3756,-151.855 3756,-151.855"/>
<polygon fill="#000000" stroke="#000000" points="3752.5001,-151.8549 3756,-161.855 3759.5001,-151.855 3752.5001,-151.8549"/>
</g>
<!-- NestjsEventStoreService  -->
<g id="node34" class="node">
<title>NestjsEventStoreService </title>
<polygon fill="#fb8072" stroke="#000000" points="4067.1757,-266 3908.8243,-266 3908.8243,-230 4067.1757,-230 4067.1757,-266"/>
<text text-anchor="middle" x="3988" y="-243.8" font-family="Times,serif" font-size="14.00" fill="#000000">NestjsEventStoreService </text>
</g>
<!-- NestjsEventStoreModule -->
<g id="node35" class="node">
<title>NestjsEventStoreModule</title>
<polygon fill="#8dd3c7" stroke="#000000" points="4066.2478,-198 4063.2478,-202 4042.2478,-202 4039.2478,-198 3909.7522,-198 3909.7522,-162 4066.2478,-162 4066.2478,-198"/>
<text text-anchor="middle" x="3988" y="-175.8" font-family="Times,serif" font-size="14.00" fill="#000000">NestjsEventStoreModule</text>
</g>
<!-- NestjsEventStoreModule&#45;&gt;NestjsEventStoreService  -->
<g id="edge34" class="edge">
<title>NestjsEventStoreModule&#45;&gt;NestjsEventStoreService </title>
<path fill="none" stroke="#000000" stroke-dasharray="5,2" d="M3988,-198.2228C3988,-198.2228 3988,-219.7269 3988,-219.7269"/>
<polygon fill="#000000" stroke="#000000" points="3984.5001,-219.7269 3988,-229.7269 3991.5001,-219.727 3984.5001,-219.7269"/>
</g>
<!-- NestjsEventStoreService -->
<g id="node36" class="node">
<title>NestjsEventStoreService</title>
<ellipse fill="#fdb462" stroke="#000000" cx="3988" cy="-104" rx="107.0743" ry="18"/>
<text text-anchor="middle" x="3988" y="-99.8" font-family="Times,serif" font-size="14.00" fill="#000000">NestjsEventStoreService</text>
</g>
<!-- NestjsEventStoreService&#45;&gt;NestjsEventStoreModule -->
<g id="edge35" class="edge">
<title>NestjsEventStoreService&#45;&gt;NestjsEventStoreModule</title>
<path fill="none" stroke="#000000" d="M3988,-122.0109C3988,-122.0109 3988,-151.855 3988,-151.855"/>
<polygon fill="#000000" stroke="#000000" points="3984.5001,-151.8549 3988,-161.855 3991.5001,-151.855 3984.5001,-151.8549"/>
</g>
<!-- NestMultiTenantService -->
<g id="node38" class="node">
<title>NestMultiTenantService</title>
<ellipse fill="#fdb462" stroke="#000000" cx="3343" cy="-180" rx="105.9324" ry="18"/>
<text text-anchor="middle" x="3343" y="-175.8" font-family="Times,serif" font-size="14.00" fill="#000000">NestMultiTenantService</text>
</g>
<!-- NestMultiTenantService&#45;&gt;NestMultiTenantModule -->
<g id="edge37" class="edge">
<title>NestMultiTenantService&#45;&gt;NestMultiTenantModule</title>
<path fill="none" stroke="#000000" d="M3236.877,-180C3210.5033,-180 3189.6003,-180 3189.6003,-180 3189.6003,-180 3189.6003,-132.0109 3189.6003,-132.0109"/>
<polygon fill="#000000" stroke="#000000" points="3193.1004,-132.0109 3189.6003,-122.0109 3186.1004,-132.011 3193.1004,-132.0109"/>
</g>
<!-- ProjectService -->
<g id="node39" class="node">
<title>ProjectService</title>
<ellipse fill="#fdb462" stroke="#000000" cx="1160" cy="-104" rx="67.1888" ry="18"/>
<text text-anchor="middle" x="1160" y="-99.8" font-family="Times,serif" font-size="14.00" fill="#000000">ProjectService</text>
</g>
<!-- ProjectService&#45;&gt;ProjectModule -->
<g id="edge38" class="edge">
<title>ProjectService&#45;&gt;ProjectModule</title>
<path fill="none" stroke="#000000" d="M1144,-121.627C1144,-121.627 1144,-151.9409 1144,-151.9409"/>
<polygon fill="#000000" stroke="#000000" points="1140.5001,-151.9408 1144,-161.9409 1147.5001,-151.9409 1140.5001,-151.9408"/>
</g>
<!-- AuthRepository -->
<g id="node41" class="node">
<title>AuthRepository</title>
<ellipse fill="#fdb462" stroke="#000000" cx="1975" cy="-180" rx="72.9547" ry="18"/>
<text text-anchor="middle" x="1975" y="-175.8" font-family="Times,serif" font-size="14.00" fill="#000000">AuthRepository</text>
</g>
<!-- AuthRepository&#45;&gt;RepositoryModule -->
<g id="edge40" class="edge">
<title>AuthRepository&#45;&gt;RepositoryModule</title>
<path fill="none" stroke="#000000" d="M2043.5154,-173.7806C2043.5154,-155.6296 2043.5154,-104 2043.5154,-104 2043.5154,-104 2052.3522,-104 2052.3522,-104"/>
<polygon fill="#000000" stroke="#000000" points="2052.3522,-107.5001 2062.3522,-104 2052.3521,-100.5001 2052.3522,-107.5001"/>
</g>
<!-- UserService -->
<g id="node42" class="node">
<title>UserService</title>
<ellipse fill="#fdb462" stroke="#000000" cx="1325" cy="-104" rx="58.4415" ry="18"/>
<text text-anchor="middle" x="1325" y="-99.8" font-family="Times,serif" font-size="14.00" fill="#000000">UserService</text>
</g>
<!-- UserService&#45;&gt;UserModule -->
<g id="edge41" class="edge">
<title>UserService&#45;&gt;UserModule</title>
<path fill="none" stroke="#000000" d="M1356.6161,-119.3797C1356.6161,-119.3797 1356.6161,-151.971 1356.6161,-151.971"/>
<polygon fill="#000000" stroke="#000000" points="1353.1162,-151.971 1356.6161,-161.971 1360.1162,-151.971 1353.1162,-151.971"/>
</g>
</g>
</svg>
